<?xml version="1.0" encoding="utf-8"?>
<!-- Generator: Adobe Illustrator 18.1.1, SVG Export Plug-In . SVG Version: 6.00 Build 0)  -->
<!DOCTYPE svg PUBLIC "-//W3C//DTD SVG 1.1//EN" "http://www.w3.org/Graphics/SVG/1.1/DTD/svg11.dtd">
<svg version="1.1" id="Layer_1" xmlns="http://www.w3.org/2000/svg" xmlns:xlink="http://www.w3.org/1999/xlink" x="0px" y="0px"
	 viewBox="0 0 610.7 166.1" enable-background="new 0 0 610.7 166.1" xml:space="preserve">
<g>
	<g>
		<path fill="#FFFFFF" d="M374.1,78.2h-1.7c-1.6,6.1-4.5,7.9-9.2,7.9h-9.9V67.7h5.3c3.8,0,6.1,1.2,6.7,6.2h1.7v-15h-1.7
			c-0.6,5-2.9,6.2-6.7,6.2h-5.3V47.5h10.2c4.8,0,6.9,2.6,8.1,7.9h1.7L373,45.1h-31.7v1.7c4.3,0.3,4.8,0.4,4.8,2.7v34.4
			c0,2.3-0.5,2.4-4.8,2.7v1.7h32.1L374.1,78.2z M191,69.7c2,1.6,3.9,4.4,5.4,6.9l3.2,5.3c1.2,2.3,3,4.8,4.5,6.6h10.6v-1.7
			c-2.2-0.3-4.2-0.6-6.3-3.7l-5-7.6c-1.5-2.2-3.4-4.5-6.6-6.2c8.6-1.5,11.9-7.1,11.9-12.4c0-6.8-5.3-11.8-14.6-11.8h-18.8v1.7
			c4.3,0.3,4.8,0.4,4.8,2.7v34.4c0,2.3-0.5,2.4-4.8,2.7v1.7H192v-1.7c-4.3-0.3-4.8-0.4-4.8-2.7V69.7H191z M187.3,47.5h5.2
			c6.8,0,8.8,5.1,8.8,10c0,5.5-2.1,9.6-10.1,9.6h-3.8V47.5z M279.7,89.1c6.2,0,10.7-2.2,13.2-3.7l0.8-8.9H292c-1.2,5-4.1,10-12.3,10
			c-7.9,0-14.1-7-14.1-19.7c0-12.7,6.2-19.7,14.1-19.7c7.4,0,10.9,4.6,12.1,10h1.7l-0.6-8.9c-2.5-1.5-7-3.7-13.2-3.7
			c-12.2,0-21.7,9.3-21.7,22.3C258.1,79.8,267.5,89.1,279.7,89.1 M175.3,99.5v1.7c4.3,0.3,4.8,0.4,4.8,2.7v34.4
			c0,2.3-0.5,2.4-4.8,2.7v1.7H192v-1.7c-4.3-0.3-4.8-0.4-4.8-2.7v-15.1h5.3c3.8,0,6.1,1.2,6.7,6.2h1.7v-15h-1.7
			c-0.6,5-2.9,6.2-6.7,6.2h-5.3v-18.8h10.2c4.8,0,6.9,2.6,8.1,7.9h1.7L207,99.5H175.3z M235.5,98.8c-11.9,0-21.6,9.3-21.6,22.3
			c0,13,9.7,22.3,21.6,22.3c11.8,0,21.6-9.3,21.6-22.3C257.1,108.1,247.4,98.8,235.5,98.8 M235.5,140.8c-8.4,0-14-7.2-14-19.7
			c0-12.5,5.6-19.7,14-19.7c8.4,0,14,7.2,14,19.7C249.6,133.7,244,140.8,235.5,140.8 M178.7,16.6h1.8v18.3c0,1.1-0.2,1.2-2.4,1.4
			v0.9h8.4v-0.9c-2.1-0.2-2.4-0.2-2.4-1.4V16.6h1.8c2.4,0,3.3,1.3,3.9,4h0.9l-0.2-5.2h-16.4l-0.2,5.2h0.9
			C175.4,17.9,176.3,16.6,178.7,16.6 M313.3,86.8c-4.3-0.3-4.8-0.4-4.8-2.7V68.2c2.2,0.1,3.7,0.7,5.4,3l6.3,8.6
			c1.2,1.9,4.2,5.9,6.9,8.7h11.2v-1.7c-3.4-0.4-5.2-2.1-7.3-4.8l-7.4-9.8c-1.7-2.3-4.7-5.8-7.1-7.6l11.6-14.3
			c1.9-2.4,3.5-2.9,7.4-3.3v-1.7h-15.4v1.7c5.2,0.3,5.5,2.2,3.7,4.3l-9.1,11.5c-1.7,2.1-3.5,3-6.3,3.1V49.6c0-2.3,0.5-2.4,4.8-2.7
			v-1.7h-16.7v1.7c4.3,0.3,4.8,0.4,4.8,2.7v34.4c0,2.3-0.5,2.4-4.8,2.7v1.7h16.7V86.8z M218.7,37.4c3.4,0,5.2-2,5.7-2.5L224,34
			c-0.9,0.5-2,1.1-3.9,1.1c-3,0-5.5-2.1-5.5-6.4v-0.6h9.8c0.2-0.6,0.2-1.3,0.2-1.9c0-3.7-2.9-4.9-5.6-4.9c-3.9,0-7.8,2.9-7.8,8.2
			C211.2,33.7,213.8,37.4,218.7,37.4 M218.9,22.5c1.4,0,2.5,0.7,2.5,2.7c0,0.4,0,1-0.2,1.6h-6.4C215.3,24.1,216.7,22.5,218.9,22.5
			 M200.1,36.3c-2.1-0.2-2.4-0.2-2.4-1.4v-9.4c0.9-0.9,2.4-1.9,4.2-1.9c1.5,0,2.2,1,2.2,2.5v8.7c0,1.1-0.2,1.2-1.9,1.4v0.8h7.7v-0.8
			c-2.1-0.2-2.4-0.2-2.4-1.4v-9c0-3.4-1.9-4.7-4-4.7c-2.3,0-4.3,1.4-5.8,3.3h-0.2l0.2-10.1h-0.4l-5.4,0.7v0.8
			c2.1,0.2,2.4,0.2,2.4,1.5v17.5c0,1.1-0.3,1.2-2.4,1.4v0.8h8.2V36.3z M213,66.8c0,13,9.7,22.3,21.6,22.3c11.9,0,21.6-9.3,21.6-22.3
			c0-13-9.7-22.3-21.6-22.3C222.7,44.5,213,53.8,213,66.8 M234.5,47.1c8.4,0,14,7.2,14,19.7c0,12.5-5.6,19.7-14,19.7
			c-8.4,0-14-7.2-14-19.7C220.5,54.3,226.1,47.1,234.5,47.1 M291.8,101.2c5.3,0.3,5.8,0.4,5.8,2.7v21.6c0,8.7-3.8,14.1-11.9,14.1
			c-7.6,0-11.5-4.9-11.5-14.1v-21.6c0-2.3,0.5-2.4,4.8-2.7v-1.7h-16.7v1.7c4.3,0.3,4.8,0.4,4.8,2.7v22.2c0,10.7,5.3,17.3,16.8,17.3
			c10.1,0,16.6-6.2,16.6-17.3v-22.2c0-2.3,0.5-2.4,5.5-2.7v-1.7h-14.2V101.2z M537.8,98.8c-11.8,0-21.6,9.3-21.6,22.3
			c0,13,9.7,22.3,21.6,22.3c11.9,0,21.6-9.3,21.6-22.3C559.4,108.1,549.6,98.8,537.8,98.8 M537.8,140.8c-8.4,0-14-7.2-14-19.7
			c0-12.5,5.6-19.7,14-19.7c8.4,0,14,7.2,14,19.7C551.8,133.7,546.2,140.8,537.8,140.8 M492.6,101.2c4.3,0.3,4.8,0.4,4.8,2.7v34.4
			c0,2.3-0.5,2.4-4.8,2.7v1.7h16.7v-1.7c-4.3-0.3-4.8-0.4-4.8-2.7v-34.4c0-2.3,0.5-2.4,4.8-2.7v-1.7h-16.7V101.2z M548.9,86.2h-9.9
			V67.7h5.3c3.8,0,6.1,1.2,6.7,6.2h1.7v-15H551c-0.6,5-2.9,6.2-6.7,6.2h-5.3V47.5h10.2c4.8,0,6.9,2.6,8.1,7.9h1.7l-0.3-10.3h-31.7
			v1.7c4.3,0.3,4.8,0.4,4.8,2.7v34.4c0,2.3-0.5,2.4-4.8,2.7v1.7h32.1l0.6-10.3h-1.7C556.6,84.3,553.7,86.2,548.9,86.2 M592.5,101.2
			c5.4,0.3,5.9,0.4,5.9,2.7V131l-20-31.5h-13.2v1.7c5,0.3,5.5,0.4,5.5,2.7v34.4c0,2.3-0.5,2.4-5.5,2.7v1.7h14.3v-1.7
			c-5.4-0.3-5.9-0.4-5.9-2.7v-33l23.8,37.7h3.8v-39.2c0-2.3,0.5-2.4,5.5-2.7v-1.7h-14.3V101.2z M522.7,78.2h-1.7
			c-1.6,6.1-4.5,7.9-9.2,7.9h-9.2V49.6c0-2.3,0.5-2.4,4.8-2.7v-1.7h-16.7v1.7c4.3,0.3,4.8,0.4,4.8,2.7v34.4c0,2.3-0.5,2.4-4.8,2.7
			v1.7h31.5L522.7,78.2z M600.6,83.1l-5-7.6c-1.5-2.2-3.4-4.5-6.6-6.2c8.6-1.5,11.9-7.1,11.9-12.4c0-6.8-5.3-11.8-14.6-11.8h-18.8
			v1.7c4.3,0.3,4.8,0.4,4.8,2.7v34.4c0,2.3-0.5,2.4-4.8,2.7v1.7h16.7v-1.7c-4.3-0.3-4.8-0.4-4.8-2.7V69.7h3.7c2,1.6,3.9,4.4,5.4,6.9
			l3.2,5.3c1.2,2.3,3,4.8,4.5,6.6h10.6v-1.7C604.7,86.5,602.7,86.2,600.6,83.1 M583.2,67.1h-3.8V47.5h5.2c6.8,0,8.8,5.1,8.8,10
			C593.3,63,591.2,67.1,583.2,67.1 M474.5,86.2h-9.2V49.6c0-2.3,0.5-2.4,4.8-2.7v-1.7h-16.7v1.7c4.3,0.3,4.8,0.4,4.8,2.7v34.4
			c0,2.3-0.5,2.4-4.8,2.7v1.7h31.5l0.6-10.3h-1.7C482.1,84.3,479.2,86.2,474.5,86.2 M400.7,47.5c4.8,0,6.9,2.6,8.1,7.9h1.7
			l-0.3-10.3h-31.7v1.7c4.3,0.3,4.8,0.4,4.8,2.7v34.4c0,2.3-0.5,2.4-4.8,2.7v1.7h16.7v-1.7c-4.3-0.3-4.8-0.4-4.8-2.7V68.9h5.3
			c3.8,0,6.1,1.2,6.7,6.2h1.7v-15h-1.7c-0.6,5-2.9,6.2-6.7,6.2h-5.3V47.5H400.7z M382,99.5h-19.6v1.7c4.3,0.3,4.8,0.4,4.8,2.7v34.4
			c0,2.3-0.5,2.4-4.8,2.7v1.7H382c11.8,0,21.6-8.7,21.6-21.7C403.6,108.1,393.9,99.5,382,99.5 M382,140.5h-7.7v-38.7h7.7
			c8.3,0,14,6.8,14,19.3C396.1,133.7,390.5,140.5,382,140.5 M443,137.9l-14.4-38.7h-4.2l-12.8,38.5c-0.9,2.5-1.7,2.9-5.1,3.5v1.7
			h13.4v-1.7c-5-0.6-6-1.3-4.8-5l2.4-7.1h14.9l3,8.3c1,2.9,0.1,3.3-4.2,3.8v1.7h16.9v-1.7C444.5,140.7,443.8,139.9,443,137.9
			 M418.2,126.3l6.2-18.9h0.1l6.8,18.9H418.2z M450.3,99.5l-0.3,10.3h1.7c1.2-5.3,3.1-7.9,7.9-7.9h3.5v36.6c0,2.3-0.5,2.4-4.8,2.7
			v1.7h16.7v-1.7c-4.3-0.3-4.8-0.4-4.8-2.7v-36.6h3.5c4.8,0,6.6,2.6,7.9,7.9h1.7l-0.3-10.3H450.3z M437.8,86.2H428V67.7h5.3
			c3.8,0,6.1,1.2,6.7,6.2h1.7v-15h-1.7c-0.6,5-2.9,6.2-6.7,6.2H428V47.5h10.2c4.8,0,6.9,2.6,8.1,7.9h1.7l-0.3-10.3h-31.7v1.7
			c4.3,0.3,4.8,0.4,4.8,2.7v34.4c0,2.3-0.5,2.4-4.8,2.7v1.7h32.1l0.6-10.3h-1.7C445.5,84.3,442.6,86.2,437.8,86.2 M340,101.2
			c5.4,0.3,5.9,0.4,5.9,2.7V131l-20-31.5h-13.2v1.7c5,0.3,5.5,0.4,5.5,2.7v34.4c0,2.3-0.5,2.4-5.5,2.7v1.7H327v-1.7
			c-5.4-0.3-5.9-0.4-5.9-2.7v-33l23.8,37.7h3.8v-39.2c0-2.3,0.5-2.4,5.5-2.7v-1.7H340V101.2z"/>
	</g>
</g>
<g>
	<g>
		<path fill="#FFFFFF" d="M146.2,103.5c3-11.7,3.5-24,1.2-35.9c-2.2-11.3-7-22-13.7-31.3c-2.2-3-4.6-5.9-7.3-8.6
			c0.5,1.7,1.1,3.4,1.6,5.1c-1-0.4-2-0.8-3-1.1c-0.6-0.2-1.2-0.4-1.8-0.6c-0.2-0.1-0.5-0.2-0.7-0.2c-0.2-0.3-0.3-0.7-0.5-1
			c-1-2-2-4-3.2-6c2.4,1,4.7,2,7,3.2c-1.4-1.4-2.8-2.7-4.2-4c-0.7-0.6-1.4-1.5-2.3-1.8c-0.9-0.4-1.9-0.7-2.9-1
			c-0.8-1.1-1.7-2.6-2.9-3.4c-0.7-0.4-1.4-0.9-2.1-1.3c0.7,1.2,1.3,2.4,1.8,3.7c-1.9-0.6-3.7-1.1-5.6-1.6c-0.9-0.2-1.8-0.4-2.6-0.6
			c-0.5-0.1-1-0.1-1.3-0.6c-0.2-0.4-0.5-0.9-0.7-1.3c-0.9-1.6-1.8-3.1-2.9-4.6c-0.3-0.4-0.6-1.1-1-1.3c-0.4-0.1-0.7-0.3-1.1-0.4
			c1.1,2.2,1.7,4.7,2.1,7.1c-3.2-0.6-6.4-1.1-9.6-1.4c-0.8-0.1-1.6-0.2-2.3-0.2c-0.6-0.1-0.5-0.3-0.6-0.8c-0.1-0.5-0.3-1-0.4-1.4
			c-0.5-1.5-0.9-3-1.5-4.4c3.6,0.6,7.1,1.3,10.7,2.1c-0.8-0.5-1.8-0.7-2.7-1c-1.3-0.4-2.7-0.7-4-1c-1.3-0.3-2.6-0.5-3.9-0.7
			c-0.6-0.1-0.7-1.1-0.9-1.7c-0.2-0.4-0.3-0.4-0.8-0.4c0,0.6,0.1,1.3,0.1,1.9c-2.6-0.3-5.2-0.5-7.8-0.6C75,6,73.8,6,72.5,6
			c-0.6,0-1.3,0-1.9,0c-0.5,0-0.8,0.2-0.8-0.4c0-0.4-0.1-0.8-0.1-1.1c-0.1,0.4-0.2,0.8-0.3,1.2c0,0.1,0,0.2,0,0.3
			c-0.4,0-0.7,0-1.1,0c-0.6,0-1.2,0-1.8,0c-1.1,0-2.2,0.1-3.3,0.1c-0.6,0-2.3-0.3-2.5,0.4c2.9-0.1,5.8-0.2,8.7-0.2
			c-0.1,1.8-0.2,3.6-0.3,5.5c0,0.4,0,0.8-0.1,1.2c0,0.3,0,0.5,0,0.8c-0.3,0-0.5,0-0.8,0c-1,0-2.1,0.1-3.1,0.1
			c-3.8,0.2-7.6,0.5-11.4,1c0.2-2.5,0.3-4.9,0.6-7.4c-0.5,1.9-0.9,3.8-1.4,5.7c0,0.2-0.1,0.3-0.1,0.5c0,0.2-0.1,0.5-0.1,0.7
			c-0.1,0.5,0,0.7-0.5,0.8c-1.4,0.2-2.8,0.4-4.2,0.6c-2.1,0.3-4.6,0.4-6.5,1.2c3.7-0.4,7.3-0.8,11-1c-0.4,2-0.7,4.1-1,6.1
			c-0.2,1.1-0.3,2.2-0.5,3.3c0,0.3-0.1,0.5-0.1,0.8c-0.1,0.5,0.1,0.7-0.5,0.8c-0.6,0.1-1.2,0.2-1.9,0.2c-4.8,0.6-9.6,1.4-14.4,2.3
			c0.3-2.8,0.7-5.6,1.1-8.3c-0.4,2.4-0.8,4.9-1.2,7.3c0,0.3-0.1,0.5-0.1,0.8c-0.1,0.6-0.3,0.4-0.8,0.5c-0.6,0.1-1.3,0.2-1.9,0.4
			c-1.3,0.3-2.6,0.5-3.8,0.8c2.1,0,4.3-0.4,6.4-0.6c-0.7,4.1-1.3,8.3-1.8,12.5c-0.1,0.5-0.1,1-0.2,1.5c-0.1,0.5,0.1,1.1-0.5,1.1
			c-1,0.1-2.1,0.3-3.1,0.4c-2.2,0.3-4.4,0.7-6.7,1c0.4,0.3,1.3,0.1,1.8,0c0.9,0,1.8-0.1,2.8-0.1c1.8-0.1,3.6-0.2,5.4-0.2
			c-0.7,5.4-1.3,10.8-1.7,16.3c0,0.2,0,0.5-0.1,0.7c-0.4,0-0.7,0.1-1.1,0.1c-0.6,0.1-1.2,0.1-1.8,0.2c-1.4,0.1-2.7,0.3-4.1,0.4
			c-2.8,0.3-5.6,0.6-8.4,0.9c0.3-3.9,0.7-7.9,1-11.8c-0.6,2.1-0.8,4.3-1.1,6.5c-0.2,1.7-0.4,3.4-0.6,5.1c-0.1,0.5-0.3,0.4-0.8,0.4
			c-0.5,0.1-1,0.1-1.5,0.2c-1,0.1-2.1,0.2-3.1,0.3c1.8,0,3.6-0.1,5.4-0.1c-1.3,12.5-1.7,24.9-0.4,37.4c-0.4,0-0.8,0-1.2,0
			c0.3,0.1,0.5,0.1,0.8,0.2c0.6,0.2,0.5,0.5,0.5,1.1c0.2,1.5,0.3,3,0.5,4.5c0.3,2.4,0.3,5.2,1.4,7.3c-0.5-4.2-0.9-8.4-1.3-12.6
			c2.6,0.2,5.2,0.4,7.8,0.6c1.3,0.1,2.6,0.2,3.9,0.4c0.7,0.1,1.3,0.1,2,0.2c0.4,0,0.8,0.1,1.2,0.1c0.6,0.1,0.4,0.3,0.4,0.8
			c0.4,5.4,1,10.9,1.7,16.3c-4.6-0.3-9.3-0.7-13.9-1.2c1.7,0.9,3.7,0.9,5.5,1.2c2.6,0.4,5.2,0.8,7.8,1.1c0.3,0,0.5,0.1,0.8,0.1
			c0.1,0.4,0.1,0.8,0.2,1.1c0.1,0.6,0.2,1.3,0.3,1.9c0.2,1.3,0.4,2.5,0.6,3.8c0.5,2.7,0.9,5.4,1.5,8.1c-0.7-0.1-1.3-0.1-2-0.2
			c0.3,0.2,0.7,0.5,1,0.6c0.2,0.1,0.5,0.1,0.7,0.2c0.4,0.1,0.4,0,0.5,0.4c0.1,0.4,0.1,0.7,0.2,1.1c0.5,2.7,1.1,5.4,1.7,8.2
			c0,0,0-0.1,0-0.1c0.1,0,0.3,0.6,0.4,0.5c0.2-0.2-0.2-1.4-0.2-1.6c-0.2-0.9-0.3-1.8-0.5-2.7c-0.3-1.9-0.7-3.8-1-5.6
			c4.6,0.7,9.2,1.3,13.9,1.9c0.5,0.1,1,0.1,1.4,0.2c0.2,0,0.5,0.1,0.7,0.1c0.5,0.1,0.4,0.3,0.4,0.8c0.2,1.3,0.3,2.5,0.5,3.8
			c0.3,2.3,0.6,4.7,1,7c-4.5-0.4-9-1-13.4-1.8c3.6,1.3,7.5,1.7,11.3,2.2c0.6,0.1,1.3,0.2,1.9,0.3c0.7,0.1,0.5,0.9,0.6,1.5
			c0.1,0.4,0.2,0.9,0.3,1.3c0.3,1.1,0.6,2.2,0.9,3.3c0.6-0.6,0.3-1.4,0.2-2.3c-0.1-1.2-0.2-2.5-0.3-3.7c3.5,0.4,6.9,0.7,10.4,0.9
			c0.9,0.1,1.8,0.1,2.6,0.1c0.5,0,1,0,1.5,0.1c0.3,0,0.5,0,0.8,0c0,0.3,0,0.5,0.1,0.8c0.2,2.1,0.3,4.2,0.5,6.2c-2,0-4.1,0-6.1-0.1
			c-1.2,0-2.4-0.2-3.5,0.1c1.7,0.2,3.5,0.3,5.2,0.4c0.8,0,1.6,0.1,2.5,0.1c0.5,0,1.9-0.2,2.1,0.2c0.1,0.2,0.3,0.5,0.4,0.4
			c0-0.5-0.1-0.5,0.4-0.5c0.5,0,1,0,1.5,0c1.8,0,3.6,0,5.3-0.1c2.6-0.1,5.2-0.4,7.7-0.9c1.6-0.3,3.2-0.7,4.7-1.1
			c0.9-0.2,1.5-0.6,2.3-1.1c-2,1.2-4.6,1.5-6.9,1.8c0.6-1.5,1.1-3.1,1.6-4.6c0.2-0.7,0.5-1.5,0.7-2.2c0.9-0.1,1.8-0.2,2.7-0.3
			c3.3-0.4,6.7-0.9,10-1.6c-0.4,1.7-0.8,3.4-1.4,5c0.7-0.3,1.4-0.6,2.1-0.9c0.5-0.2,0.7-0.6,1-1.1c0.5-0.9,1-1.7,1.5-2.6
			c0.2-0.3,0.4-0.7,0.5-1c0.3-0.5,0.7-0.5,1.3-0.6c1-0.3,2-0.5,2.9-0.8c2-0.6,3.9-1.2,5.8-1.9c-0.1,0.4-0.3,0.8-0.4,1.1
			c3.2-2.3,6.4-4.6,9.3-7.3c-1.4,0.6-2.8,1.1-4.2,1.6c1.2-1.9,2.3-3.8,3.4-5.8c0.3-0.5,0.3-0.9,0.9-1.1c0.6-0.2,1.2-0.4,1.8-0.6
			c1.1-0.4,2.2-0.8,3.3-1.3c-0.3,1-0.5,1.9-0.8,2.9c4.6-4.9,8.6-10.4,11.8-16.2c1.6-2.8,2.9-5.7,4.1-8.7c0.6-1.6,1.2-3.2,1.7-4.8
			C145.4,106.3,145.7,104.8,146.2,103.5z M71.9,139.1c0.1-2.1,0.3-4.2,0.4-6.3c0.1-1,0.1-2.1,0.2-3.1c0-0.5,0.1-1,0.1-1.6
			c0-0.3,0-0.5,0-0.8c0-0.6,0.3-0.4,0.8-0.4c4.2,0.2,8.4,0.3,12.6,0.4c-0.1,2.1-0.1,4.1-0.2,6.2c0,1-0.1,2-0.1,3c0,0.5,0,1-0.1,1.5
			c-0.5,0.1-1,0.1-1.5,0.2C80.1,138.6,76,138.9,71.9,139.1 M85.5,142.2c-0.1,1.9-0.2,3.9-0.2,5.8c0,1-0.1,2-0.1,3.1
			c0,0.8,0,0.8-0.8,0.9c-0.5,0.1-1,0.1-1.5,0.2c-4,0.4-7.9,0.7-11.9,0.8c0.2-2.1,0.3-4.1,0.5-6.2c0.1-1,0.2-2,0.2-3.1
			c0-0.5,0.1-1,0.1-1.5c0.5,0,1,0,1.6,0C77.3,142.3,81.4,142.3,85.5,142.2 M85.1,29.6c0.1,3.7,0.3,7.3,0.4,11
			c-4.1,0.1-8.2,0.2-12.2,0.4c-0.8,0-0.8,0.1-0.8-0.8c0-0.5-0.1-1.1-0.1-1.6c-0.1-1.1-0.1-2.1-0.2-3.2c-0.1-2.3-0.3-4.5-0.5-6.8
			C76.2,28.9,80.6,29.2,85.1,29.6 M71.4,25.1c-0.2-3.3-0.6-6.7-0.8-10c3.8,0,7.6,0.2,11.4,0.5c0.9,0.1,1.7,0.1,2.6,0.2
			c0,1,0.1,2.1,0.1,3.1c0.1,2.1,0.2,4.2,0.3,6.2C80.4,25,75.9,25,71.4,25.1 M96.6,77c-0.1-2.5-0.2-5.1-0.3-7.6
			c1.5,0.2,3,0.4,4.5,0.6c0.7,0.1,1.5,0.2,2.2,0.3c0,0.9,0,1.7,0,2.6c0,0.7,0,1.5,0,2.2c0,0.5,0.2,0.7-0.4,0.8
			c-0.4,0.1-0.8,0.1-1.1,0.2C99.8,76.5,98.2,76.8,96.6,77 M86.3,99.5c-4.3,0.6-8.6,1.1-12.8,1.6c0.1-4.3,0.1-8.6,0.1-13
			c3.7,0.4,7.5,0.8,11.2,1.2c0.4,0,0.8,0.1,1.1,0.1c0.4-0.1,0.5,0.1,0.4,0.4c0,0.3,0,0.5,0,0.8c0,1,0,2.1,0,3.1
			C86.4,95.6,86.4,97.6,86.3,99.5 M86.3,109.4c0,2,0,3.9-0.1,5.9c0,0.9,0,1.8,0,2.7c0,0.5,0,1,0,1.5c0,0.6-0.6,0.5-1.2,0.5
			c-4,0.5-8.1,0.9-12.1,1.2c0.2-4.2,0.3-8.4,0.4-12.7C77.6,108.9,81.9,109.2,86.3,109.4 M73.6,80c0-4.3-0.1-8.6-0.2-12.9
			c3,0.2,6,0.5,8.9,0.8c0.6,0.1,1.3,0.1,1.9,0.2c0.4,0,0.8,0.1,1.1,0.1c0.5,0.1,0.7-0.1,0.8,0.5c0,1.6,0,3.2,0.1,4.7
			c0,1.4,0,2.9,0.1,4.3c0,0.5,0.2,0.8-0.4,0.8c-0.4,0-0.7,0.1-1.1,0.1c-0.8,0.1-1.5,0.2-2.3,0.3C79.6,79.4,76.6,79.7,73.6,80
			 M102.9,58.1c-1.3,0-2.6,0.1-3.9,0.1c-0.6,0-1.2,0-1.9,0.1c-0.4,0-0.8,0-1.1,0c-0.6,0-0.4-0.2-0.5-0.8c-0.3-2.9-0.6-5.8-0.9-8.7
			c2.6,0.4,5.2,0.8,7.8,1.2c0.4-0.1,0.5,0.1,0.4,0.4c0,0.4,0,0.7,0,1.1c0,0.8,0,1.5,0,2.3C102.8,55.3,102.9,56.7,102.9,58.1
			 M86,58.7c-4.2,0.2-8.5,0.5-12.7,0.8c-0.1-4.3-0.3-8.5-0.5-12.8c4,0.3,7.9,0.6,11.8,1c0.4,0,0.7,0.1,1.1,0.1c0,0.5,0,1,0,1.6
			c0,1,0.1,2.1,0.1,3.1C85.9,54.5,85.9,56.6,86,58.7 M118.6,58.2c-0.6,0-1.3,0-1.9-0.1c-0.4,0.1-0.5,0-0.4-0.4
			c-0.1-0.4-0.1-0.7-0.2-1.1c-0.2-1.4-0.4-2.7-0.6-4.1c0.6,0.1,1.2,0.3,1.8,0.4c0.3,0.1,0.7,0.2,1,0.2c0.5,0.1,0.4,0.3,0.4,0.8
			C118.6,55.4,118.6,56.8,118.6,58.2 M113.2,41.8c-0.7-2.8-1.4-5.5-2.3-8.2c1.1,0.2,2.2,0.5,3.4,0.8c0.5,0.1,1,0.2,1.5,0.4
			c0.5,0.1,1.4,0.1,1.5,0.7c0.3,2.3,0.6,4.7,0.8,7C116.4,42.2,114.8,42,113.2,41.8 M102.4,40.9c-1.5-0.1-3-0.1-4.4-0.2
			c-0.8,0-1.5-0.1-2.3-0.1c-0.4,0-0.8,0-1.1,0c-0.6,0-1.1,0.2-1.2-0.4c-0.5-3.3-1.1-6.6-1.7-9.9c3.2,0.4,6.4,0.9,9.6,1.4
			c0.5,0.1,0.7-0.1,0.8,0.5c0,0.4,0,0.7,0.1,1.1c0.1,0.9,0.1,1.7,0.1,2.6C102.3,37.6,102.4,39.3,102.4,40.9 M67.4,41.3
			c-5.2,0.3-10.4,0.8-15.6,1.3c0.1-2.5,0.2-4.9,0.4-7.4c0.1-1.2,0.1-2.3,0.2-3.5c0-0.6,0.1-1.3,0.1-1.9c0-0.3,0-0.5,0-0.8
			c0-0.6,0.3-0.4,0.8-0.4c4.9-0.1,9.8-0.2,14.7,0C67.8,32.8,67.6,37.1,67.4,41.3 M67.2,46.3c-0.1,2.5-0.2,4.9-0.3,7.4
			c0,1.2-0.1,2.3-0.1,3.5c0,0.7,0,1.3-0.1,2c0,0.3,0,0.5,0,0.8C66.4,60,66,60,65.7,60c-4.9,0.4-9.7,0.8-14.6,1.2
			c0.1-2.6,0.2-5.2,0.2-7.8c0-1.3,0.1-2.6,0.1-3.9c0-0.7,0.1-1.3,0.1-2c0-0.3,0-0.5,0-0.8c0-0.5-0.2-0.8,0.4-0.8
			C57.1,46,62.2,46.1,67.2,46.3 M66.6,66.6c-0.1,2.5-0.1,4.9-0.2,7.4c0,1.2,0,2.4-0.1,3.5c0,0.7,0,1.3,0,2c0,0.3,0,0.5,0,0.8
			c0,0.6-0.2,0.4-0.7,0.5c-4.9,0.4-9.9,0.8-14.8,1.1c0-5.4,0.1-10.8,0.2-16.1C56.2,66,61.4,66.3,66.6,66.6 M47.5,82.1
			c-5.9,0.4-11.8,0.6-17.7,0.9c0-4.3,0.2-8.7,0.4-13c0-1.1,0.1-2.1,0.2-3.2c0-0.5,0.1-1.1,0.1-1.6c0.5,0,1.1,0,1.6,0
			c2.2,0,4.4,0.1,6.6,0.1c2,0,4.1,0.1,6.1,0.2c1,0,2,0.1,3,0.1c0,1.2-0.1,2.3-0.1,3.5C47.6,73.4,47.5,77.8,47.5,82.1 M47.5,85.8
			c0,4.3,0.1,8.7,0.2,13c0,1.1,0.1,2.1,0.1,3.2c0,0.8,0.1,0.8-0.7,0.8c-0.6,0-1.3,0-1.9,0.1c-2.2,0.1-4.4,0.1-6.6,0.1
			c-2.2,0-4.4,0-6.7,0c-0.5,0-1.1,0-1.6,0c0-0.5-0.1-1.1-0.1-1.6c-0.1-1.2-0.1-2.4-0.2-3.6c-0.2-4.4-0.2-8.8-0.2-13.3
			C35.7,85,41.6,85.4,47.5,85.8 M50.8,86.1c3.7,0.3,7.4,0.6,11.1,0.9c0.9,0.1,1.7,0.2,2.6,0.2c0.4,0,0.7,0.1,1.1,0.1
			c0.8,0.1,0.7,0.1,0.7,0.8c0,1.9,0,3.9,0,5.8c0,1.8,0,3.6,0,5.4c0,0.4,0,0.8,0,1.2c0,0.3,0,0.5,0,0.8c0.1,0.4,0,0.5-0.4,0.4
			c-1.1,0.1-2.1,0.2-3.2,0.2c-4,0.3-7.9,0.5-11.9,0.7C50.9,97.2,50.8,91.6,50.8,86.1 M66.6,108c0.1,3.6,0.2,7.2,0.3,10.9
			c0,0.9,0.1,1.8,0.1,2.7c-0.9,0.1-1.8,0.1-2.7,0.2c-2,0.1-3.9,0.2-5.9,0.3c-1.8,0.1-3.7,0.1-5.5,0.1c-0.4,0-0.8,0-1.2,0
			c0-0.5,0-1-0.1-1.6c0-0.9-0.1-1.8-0.1-2.7c-0.1-3.8-0.3-7.5-0.4-11.3C56.3,107.1,61.4,107.6,66.6,108 M67.2,126.6
			c0.2,4.2,0.4,8.4,0.6,12.6c-4.8,0.1-9.7,0.1-14.5,0c-0.3,0-0.5,0-0.8,0c0-0.3,0-0.5,0-0.8c0-0.6-0.1-1.3-0.1-1.9
			c-0.1-1.3-0.1-2.6-0.2-3.9c-0.1-2.4-0.2-4.9-0.4-7.3C57,125.8,62.1,126.2,67.2,126.6 M93.6,127.2c3-0.1,6-0.1,9-0.3
			c-0.1,1.5-0.1,3.1-0.2,4.6c0,0.7-0.1,1.5-0.1,2.2c0,0.4,0,0.7-0.1,1.1c0,0.7,0,0.7-0.8,0.9c-3.2,0.6-6.4,1.1-9.6,1.5
			C92.5,133.9,93.1,130.6,93.6,127.2 M113.2,126c1.7-0.2,3.5-0.4,5.2-0.7c-0.1,2.2-0.3,4.4-0.6,6.7c-2.2,0.6-4.4,1.2-6.7,1.7
			C111.9,131.2,112.6,128.6,113.2,126 M94.8,118.6c0.3-2.7,0.6-5.4,0.8-8.1c0-0.3,0-0.5,0.1-0.8c0.4,0,0.8,0,1.2,0
			c0.6,0,1.3,0,1.9,0c1.4,0,2.8,0,4.2,0c0,1.3,0,2.6,0,3.9c0,0.6,0,1.3,0,1.9c0,0.3,0,0.5,0,0.8c0,0.5,0.2,0.7-0.4,0.8
			C99.9,117.7,97.3,118.2,94.8,118.6 M96.4,97.9c0.1-2.5,0.2-4.9,0.2-7.4c0.6,0.1,6.3,0.6,6.3,0.8c0,0.9,0,1.8,0,2.7
			c0,0.9,0,1.8,0,2.7C103,97,97,97.8,96.4,97.9 M129.9,39c0.6,2.1,1.2,4.1,1.7,6.2c-0.9-0.2-1.7-0.4-2.6-0.7c-0.5-0.1-1-0.2-1.5-0.3
			c-0.1-0.5-0.3-1-0.4-1.5c-0.5-1.8-1.1-3.5-1.8-5.3C126.8,38,128.4,38.5,129.9,39 M114.3,22.1c0.7,2.3,1.3,4.6,1.8,6.9
			c-1.3-0.3-2.6-0.6-3.9-0.9c-0.6-0.1-1.2-0.3-1.9-0.4c-0.4-0.1-0.8-0.1-1.1-0.2c-0.5-0.1-0.5-0.3-0.7-0.8c-1-2.5-2.1-5-3.3-7.5
			C108.3,20.1,111.3,21,114.3,22.1 M100.5,18.2c0.4,2.7,0.8,5.5,1,8.3c-3.4-0.4-6.7-0.8-10.1-1c-0.5,0-0.7,0.1-0.9-0.4
			c-0.1-0.4-0.2-0.8-0.3-1.1c-0.2-0.9-0.4-1.8-0.6-2.6c-0.4-1.7-0.9-3.4-1.3-5.1C92.4,16.6,96.5,17.3,100.5,18.2 M69.8,6.3
			c3.1,0,6.1,0.1,9.2,0.4c0.8,0.1,1.6,0.2,2.4,0.3c0.5,0.1,1,0.1,1.5,0.2c0.6,0.1,1.1-0.1,1.2,0.6c0.1,2.1,0.2,4.1,0.3,6.2
			c-3.5-0.2-7-0.3-10.4-0.3c-0.9,0-1.8,0-2.7,0c-0.5,0-0.8,0.2-0.8-0.4c0-0.5-0.1-1-0.1-1.6C70.2,9.9,70,8.1,69.8,6.3 M53.5,15.7
			c5.1-0.4,10.2-0.5,15.3-0.6c-0.1,2.1-0.3,4.1-0.4,6.2c-0.1,1-0.1,2.1-0.2,3.1c0,0.8,0,0.8-0.8,0.8c-0.6,0-1.2,0.1-1.8,0.1
			c-4.3,0.2-8.6,0.6-12.9,1.1C52.9,22.8,53.2,19.2,53.5,15.7 M33.8,30c5.5-0.6,11-1,16.4-1.2c-0.3,2.4-0.5,4.8-0.8,7.2
			c-0.1,1.3-0.2,2.5-0.3,3.8c-0.1,0.6-0.1,1.3-0.2,1.9c0,0.4-0.1,0.8-0.1,1.2c-0.4,0-0.7,0.1-1.1,0.1c-5.2,0.6-10.5,1.2-15.7,1.9
			C32.6,40,33.2,35,33.8,30 M32,46.2c5.6-0.2,11.1-0.3,16.7-0.3c-0.2,2.7-0.3,5.5-0.5,8.2c-0.1,1.4-0.1,2.8-0.2,4.2
			c0,0.7-0.1,1.3-0.1,2c0,0.4,0,0.8,0,1.2c-0.3,0-0.7,0.1-1,0.1c-5.4,0.5-10.9,1-16.3,1.5C30.9,57.5,31.4,51.8,32,46.2 M29.2,65.2
			c-0.4,5.6-0.7,11.1-0.8,16.7c0,0.2,0,0.5,0,0.7c0,0.6-0.2,0.4-0.7,0.4c-0.7,0-1.5,0.1-2.2,0.1c-1.4,0.1-2.7,0.1-4.1,0.1
			c-2.8,0.1-5.6,0.2-8.5,0.3c0.1-5.2,0.5-10.4,0.9-15.6c0.1-0.6,0.1-1.3,0.2-1.9c0-0.5-0.1-0.8,0.5-0.8c0.4,0,0.8,0,1.2,0
			c1.6,0,3.2,0,4.7,0C23.2,65.2,26.2,65.2,29.2,65.2 M13.6,102.7c-0.5-6.3-0.9-12.6-0.8-18.9c2.8,0.1,5.6,0.2,8.5,0.4
			c1.4,0.1,2.7,0.1,4.1,0.2c0.6,0,1.2,0.1,1.8,0.1c0.4,0,0.7,0,1.1,0.1c0,0.4,0,0.8,0,1.2c0,5.8,0.1,11.5,0.5,17.3
			C23.7,103,18.7,102.9,13.6,102.7 M30.4,104.7c5.6,0.5,11.2,1.1,16.9,1.6c0.3,0,0.5,0.1,0.8,0.1c0,0.4,0,0.8,0,1.2
			c0,0.6,0.1,1.3,0.1,1.9c0.1,1.4,0.1,2.8,0.2,4.3c0.2,2.8,0.3,5.6,0.5,8.5c-5.7,0-11.4-0.2-17.1-0.5
			C31.2,116,30.7,110.3,30.4,104.7 M34.1,137.9c-0.8-5-1.5-9.9-2.1-14.9c5.2,0.7,10.4,1.3,15.6,1.9c0.3,0,0.5,0.1,0.8,0.1
			c0.5,0.1,0.8-0.1,0.8,0.5c0.1,0.6,0.1,1.3,0.2,1.9c0.1,1.3,0.2,2.6,0.3,3.8c0.2,2.6,0.5,5.3,0.8,7.9
			C45,138.9,39.5,138.5,34.1,137.9 M53.6,152.4c-0.3-3.8-0.6-7.6-0.9-11.5c4.3,0.4,8.5,0.8,12.8,1c0.5,0,1,0.1,1.4,0.1
			c0.5,0,1.1-0.2,1.1,0.4c0.1,1.2,0.2,2.3,0.3,3.5c0.2,2.3,0.4,4.7,0.6,7C63.8,153,58.7,152.8,53.6,152.4 M84.5,160.6
			c-4.7,0.6-9.5,0.7-14.3,0.7c0.1-1.7,0.3-3.4,0.4-5c0-0.4,0.1-0.8,0.1-1.2c0.1-0.8,0-0.8,0.8-0.8c0.9,0,1.7,0,2.6,0
			c3.6,0,7.2-0.2,10.8-0.4C84.8,156.2,84.7,158.4,84.5,160.6 M88.3,151.4c0.5-1.6,0.9-3.2,1.3-4.8c0.2-0.9,0.5-1.8,0.7-2.7
			c0.1-0.4,0.2-0.8,0.3-1.1c0.2-0.8,0.2-0.8,0.9-0.8c3.4-0.2,6.8-0.5,10.2-0.9c-0.1,1.6-0.3,3.2-0.5,4.9c-0.1,0.8-0.2,1.6-0.3,2.4
			c-0.1,0.5,0,0.6-0.5,0.7c-0.5,0.1-1,0.2-1.5,0.3C95.4,150.2,91.9,150.8,88.3,151.4 M115,144.7c-3,1.1-6.1,2-9.2,2.9
			c1.1-2.4,2.1-4.8,3.1-7.3c0.2-0.6,1.1-0.5,1.7-0.6c0.7-0.1,1.5-0.3,2.2-0.5c1.3-0.3,2.6-0.6,3.9-0.9
			C116.2,140.4,115.6,142.6,115,144.7 M129.9,127.8c-1.4,0.6-2.8,1.1-4.2,1.6c0.6-1.5,1.1-3,1.6-4.6c0.1-0.4,0.2-0.7,0.3-1.1
			c0.2-0.6,0.7-0.5,1.2-0.6c0.8-0.2,1.6-0.4,2.4-0.7C130.9,124.3,130.4,126.1,129.9,127.8 M115.6,114.3c0.2-1.1,0.4-2.3,0.5-3.4
			c0.1-0.5,0-1.5,0.6-1.6c0.2,0,0.5,0,0.7,0c0.5,0,0.7-0.2,0.7,0.3c0.1,1.1,0.2,2.2,0.2,3.3c0,0.2,0,0.5,0,0.7
			c-0.3,0.1-0.7,0.2-1,0.3C116.7,114,116.1,114.1,115.6,114.3"/>
	</g>
</g>
</svg>
